<svg xmlns="http://www.w3.org/2000/svg" width="36.27" height="34.856"><path data-name="Контур 17" d="M35.855 13.657a1.565 1.565 0 00-1.133-.464c-1.431-.007-3-.007-4.938 0a1.384 1.384 0 01-1.208-.595q-2.88-3.749-5.767-7.494l-3.386-4.4a1.64 1.64 0 00-1.283-.711 1.671 1.671 0 00-1.306.728l-3.8 4.937q-2.667 3.461-5.329 6.924a1.492 1.492 0 01-1.245.607c-1.772-.011-3.53-.008-4.861 0a1.51 1.51 0 00-1.535 1.067 1.2 1.2 0 01-.055.166l-.008.518.006.034a1.632 1.632 0 00.936 1.089 2.617 2.617 0 001.021.086l1.537-.007c.329 3.124 1.434 13.464 1.6 15.381a3.569 3.569 0 003.6 3.326h9.646c3.028 0 6.126 0 9.228-.008a3.368 3.368 0 002.979-1.55 4.846 4.846 0 00.669-2.3c.089-.985 1.219-11.589 1.557-14.843.77 0 1.865 0 2.078-.014a1.519 1.519 0 001.412-1.389 1.5 1.5 0 00-.415-1.088zM17.189 5.093a1.194 1.194 0 01.946-.536 1.17 1.17 0 01.942.528c.984 1.289 4.909 6.63 5.974 8.081h-14.06s5.362-6.972 6.198-8.073zm12.556 11.161c-.376 3.671-1.293 12.681-1.486 14.56a1.175 1.175 0 01-1.229 1.08 150.02 150.02 0 00-2.225 0h-6.446q-4.52 0-9.043.006A1.2 1.2 0 018 30.713a2526.605 2526.605 0 00-1.517-14.415l-.016-.144h23.288z" fill="#fff"/></svg>